<?xml version="1.0" encoding="UTF-8"?>
<svg id="Layer_1" data-name="Layer 1" xmlns="http://www.w3.org/2000/svg" viewBox="0 0 113.6 24.18">
  <defs>
    <style>
      .cls-1 {
        fill: #111;
      }

      .cls-2, .cls-3 {
        isolation: isolate;
      }

      .cls-4, .cls-3 {
        fill: #780000;
      }

      .cls-3 {
        font-family: AmericanTypewriter, 'American Typewriter';
        font-size: 5.68px;
      }

      .cls-5 {
        fill: #0b0b0b;
      }

      .cls-6 {
        fill: #101010;
      }

      .cls-7 {
        fill: #0c0c0c;
      }

      .cls-8 {
        fill: #0f0f0f;
      }

      .cls-9 {
        fill: #0e0e0e;
      }
    </style>
  </defs>
  <path class="cls-7" d="M10.17,6.88c-.31.84-1.95,5.12-2.19,5.44-.45.56-2.26.56-2.72,0l-2.89-6.79v8.85H0V1.45h3.69l2.93,7.84,2.93-7.8h4.04v12.37l-.56.45-2.16.07c-.03-2.37.07-4.77,0-7.14v-2.06h-.35c-.24.49-.17,1.29-.35,1.71Z"/>
  <path class="cls-5" d="M64.25,1.45h6.97s2.02.87,2.33,1.08c2.86,1.88,3.21,6.69,1.25,9.3-.8,1.08-3.31,2.54-4.6,2.54h-5.44l-.52-.52V1.45ZM66.96,3.82v8.15c3.38.35,6.62-.63,6.48-4.6-.1-3.55-3.66-3.9-6.48-3.55Z"/>
  <path class="cls-9" d="M38.39,1.8l-4.46,12.05c-.52.84-2.93.73-3.59.24-.49-.35-3.8-10-4.08-11.25-.1-.45-.21-.91-.14-1.36h2.68l3.27,9.86c1.18-2.58,1.78-6.72,3.14-9.09.49-.84.59-.7,1.43-.77.94-.1,1.01.14,1.71.35l.03-.03Z"/>
  <path class="cls-8" d="M61.88,14.38c-1.05.49-2.47-.52-2.89-.56-.31,0-.84.49-1.36.52-2.44.21-4.39,0-4.25-2.89.14-3.24,3.31-2.89,5.82-2.89-.03-2.75-3.07-1.53-4.74-1.01-.8-2.06-.17-2.51,1.88-2.72s5.61,0,5.61,2.89v6.62l-.07.03ZM59.12,10.65l-3.07.14-.28,1.53c1.57.73,3.69.45,3.38-1.67h-.03Z"/>
  <path class="cls-8" d="M16.31,17.09c0-.24-.63-1.18,0-2.06l2.06.17c.42-.45.7-1.08.66-1.71-.07-1.32-3.97-8.15-3.38-8.71.7.07,1.53-.14,2.23,0,1.25.24,1.81,4.63,2.72,5.78l2.26-5.71,2.65-.07-4.77,11.57c-.66.49-1.18.87-2.06,1.01-.35.07-.98.03-1.36,0s-.7-.17-1.01-.35v.07Z"/>
  <path class="cls-8" d="M85.99,14.38c-2.58-.77-8.54,1.64-8.81-2.58-.14-2.13,1.57-2.82,3.31-3.14.84-.14,2.89.31,2.82-.59-.42-2.51-4.91-.28-5.09-.49l-.21-2.06c1.64-.84,5.71-1.18,7,.17,1.39,1.43.17,6.55,1.01,8.68h-.03ZM83.27,10.65c-.84.1-3.8-.56-3.34,1.15.91,1.74,3.83.91,3.34-1.15Z"/>
  <path class="cls-6" d="M104.35,10.3h-5.96l-.35.7c1.08,2.26,3.76,1.22,5.61.66v2.33c-3.27.77-7.49,1.08-8.36-3-1.64-7.77,10.03-8.68,9.02-.7h.03ZM101.98,8.59c-.17-2.4-2.96-2.19-4.08-.49-.14.77.35.45.84.52,1.08.07,2.16-.07,3.24,0v-.03Z"/>
  <path class="cls-1" d="M46.93,7.27v.98c2.65.07,6.83,1.95,4.56,5.09-1.22,1.67-9.02,1.92-6.97-1.71l4.74.7c.28-1.85-2.26-1.5-3.48-2.13-2.75-1.36-1.67-4.91.98-5.33,1.57-.28,5.68-.31,4.88,2.13-.45,1.36-3.45-.94-4.7.24v.03Z"/>
  <path class="cls-1" d="M113.13,9.71c.45.49.56,2.13.42,2.79-.49,2.58-5.85,2.26-7.66,1.22l.21-2.06c.87.38,4.84,1.36,5.09.17.21-.98-2.54-1.22-3.24-1.5-3.27-1.36-2.72-5.09.7-5.47,1.18-.14,4.36-.31,4.6,1.22.45,2.79-2.51.59-3.9.84-3.34.56,3.45,2.44,3.8,2.82v-.03Z"/>
  <path class="cls-9" d="M91.46,2.15v2.72h2.37v2.37h-2.37l.14,4.42,2.23.31c-.03.98.38,2.16-.84,2.37-5.4,1.01-3.48-3.45-4.25-6.93l-1.05-.38c-.38-2.37.45-1.53,1.29-2.3.45-.38,1.57-3.48,2.47-2.61v.03Z"/>
  <path class="cls-7" d="M42.12,14.38l-2.16-.07-.56-.45V5.35c.66-.8,2.13-.77,2.72,0,0,0,0,9.02,0,9.02Z"/>
  <g class="cls-2">
    <text class="cls-3" transform="translate(5.75 22.11) scale(1.27 1)"><tspan x="0" y="0">VI</tspan></text>
    <text class="cls-3" transform="translate(13.76 22.11) scale(1.27 1)"><tspan x="0" y="0">S</tspan></text>
    <text class="cls-3" transform="translate(18.09 22.11) scale(1.27 1)"><tspan x="0" y="0">A CONSU</tspan></text>
    <text class="cls-3" transform="translate(49.64 22.11) scale(1.27 1)"><tspan x="0" y="0">L</tspan></text>
    <text class="cls-3" transform="translate(53.85 22.11) scale(1.27 1)"><tspan x="0" y="0">TI</tspan></text>
    <text class="cls-3" transform="translate(61.19 22.11) scale(1.27 1)"><tspan x="0" y="0">N</tspan></text>
    <text class="cls-3" transform="translate(66.5 22.11) scale(1.27 1)"><tspan x="0" y="0">G COM</tspan></text>
    <text class="cls-3" transform="translate(89.51 22.11) scale(1.27 1)"><tspan x="0" y="0">P</tspan></text>
    <text class="cls-3" transform="translate(93.49 22.11) scale(1.27 1)"><tspan x="0" y="0">ANY</tspan></text>
  </g>
  <path class="cls-4" d="M43.21.01s-1.85-.16-3.28,1.41c-1.44,1.57.04,2.59.04,2.59,0,0,1.19.88,2.21-.3,0,0,.6-.59.19-1.83s.73-1.88.81-1.89h.03Z"/>
</svg>